<?xml version="1.0" encoding="utf-8"?>
<!-- Generator: Adobe Illustrator 21.0.0, SVG Export Plug-In . SVG Version: 6.00 Build 0)  -->
<svg version="1.1" id="图层_1" xmlns="http://www.w3.org/2000/svg" xmlns:xlink="http://www.w3.org/1999/xlink" x="0px" y="0px"
	 viewBox="0 0 256 256" style="enable-background:new 0 0 256 256;" xml:space="preserve">
<style type="text/css">
	.st0{fill-rule:evenodd;clip-rule:evenodd;fill:none;}
</style>
<g>
	<path class="st0" d="M109.6,6.7c40.8-1.7,57.2,31.5,60.1,49.9c-14.3-9.7-33.1-17.9-60.1-10.2c11.5,3.6,18.7,11.4,24,21.3
		c-15.8-5.9-30.7-4.4-45.3-1.8c-14.6,2.5-28.8,9.4-38.8,19.4s-13.9,20.5-13.9,33.3c0,12.7,8.3,25.7,17.5,32
		c8.5,6.8,19.7,11.6,32.5,12.3c15,0,40.5-5.4,51.8-2.8c11.2,2.6,18.5,12.2,19.4,23.1c0.8,9.9-3.5,18-12,24
		c-3.6,3.1-13.4,7.5-23.1,8.3c-10.9,1-21.8-1.9-26.8-2.8c-9.5-1.7-25-5.9-40.7-21.3c3.1,2.2,38.1,8.9,59.2,7.4
		c0,0,17.7-0.4,20.3-9.2c1.5-5.1,0.8-10-5.5-11.1c-4.7-0.8-23.7,1.8-32.4,1.8s-8.9,1.6-33.3-2.8c-12.5-3.4-29.4-10.9-37.9-18.5
		c-6.7-6.1-16.9-20.9-17.6-40.7c-0.5-14.1,4.7-29.8,16.6-39.7C35.6,68.8,45.1,61,61.6,57.5C51.1,50,45.4,48.6,31.1,46.4
		c17.5-13.7,57.3-8.3,57.3-8.3s-4.2-8.3-21.3-18.5c31.4-5.5,57.3,6.5,57.3,6.5S115.2,10.4,109.6,6.7z"/>
	<path class="st0" d="M59.7,116.7c0.5-15.3,9.2-31,33.3-32.4c24-1.4,32.4,20.8,32.4,33.3c0,12.5-12.5,28.2-31.4,29.6
		C75,148.6,59.3,131.9,59.7,116.7z"/>
	<path class="st0" d="M204.8,29.8c-7.9,0.9-9.9,21.4-12,28.7c-2.1,6.2-4,16.6-15.7,29.6c-8.9,9.8-16,17.2-34.2,25
		c7.7,0,20.1,0.4,36.1-3.7c11.6-3,23.5-9.3,37.9-22.2c8.6-8.9,12.9-18.9,13.9-26.8c0.5-7.9-1.8-15.7-9.2-24
		C215.6,29.4,212.7,28.8,204.8,29.8z"/>
	<path class="st0" d="M229.8,100c-8.5,2-16.5,17.3-29.6,26.8c-13,9.5-32.7,20.6-52.7,23.1c13.8,3.9,34,3.4,48.1,1.8
		c14.1-1.5,34.4-9.8,39.7-12.9c5.3-3.1,13.7-8.1,14.8-14.8c1.1-6.7-1.7-14.1-4.6-17.6C242.6,103,238.3,98,229.8,100z"/>
	<path class="st0" d="M240,162c-14.8-1.7-35.6,8.8-43.4,18.5c-9.1,14.3-17,24.3-25.9,32.4c-19,17.2-43.8,19.7-68.4,16.6
		c-24.6-3-45.9-9.6-74.9-33.3c-0.2,1.5,7.1,18.3,29.6,33.1c10,6.5,23,12.7,39.7,16.8c-0.4,0,21.9,5.3,48.5,2
		c14.3-1.8,29.9-6,43.9-15c14.5-9.9,31.4-21,41.6-37.9C233.8,190.9,248.6,166.6,240,162z"/>
</g>
</svg>
